<mxfile host="65bd71144e">
    <diagram name="Page-1" id="IcoCdJqZrx8V3Vge2kLJ">
        <mxGraphModel dx="830" dy="1550" grid="1" gridSize="10" guides="1" tooltips="1" connect="1" arrows="1" fold="1" page="1" pageScale="1" pageWidth="1100" pageHeight="850" math="0" shadow="0">
            <root>
                <mxCell id="0"/>
                <mxCell id="1" parent="0"/>
                <mxCell id="34" value="" style="rounded=1;whiteSpace=wrap;html=1;" parent="1" vertex="1">
                    <mxGeometry x="20" y="-30" width="1270" height="2320" as="geometry"/>
                </mxCell>
                <mxCell id="pTbuJ7iXgImnSBN9kEpl-4" value="Write new HDL code" style="ellipse;whiteSpace=wrap;html=1;" parent="1" vertex="1">
                    <mxGeometry x="650" y="1150" width="140" height="90" as="geometry"/>
                </mxCell>
                <mxCell id="pTbuJ7iXgImnSBN9kEpl-5" value="Search the catalog for existing ip" style="ellipse;whiteSpace=wrap;html=1;" parent="1" vertex="1">
                    <mxGeometry x="345" y="480" width="135" height="90" as="geometry"/>
                </mxCell>
                <mxCell id="pTbuJ7iXgImnSBN9kEpl-6" value="Identify the next circuit &lt;br&gt;to describe&amp;nbsp;" style="ellipse;whiteSpace=wrap;html=1;" parent="1" vertex="1">
                    <mxGeometry x="345" y="310" width="135" height="90" as="geometry"/>
                </mxCell>
                <mxCell id="pTbuJ7iXgImnSBN9kEpl-7" value="Query more information about a particular ip" style="ellipse;whiteSpace=wrap;html=1;" parent="1" vertex="1">
                    <mxGeometry x="347.5" y="630" width="130" height="90" as="geometry"/>
                </mxCell>
                <mxCell id="pTbuJ7iXgImnSBN9kEpl-8" value="Is there a suitable circuit to reuse?" style="rhombus;whiteSpace=wrap;html=1;" parent="1" vertex="1">
                    <mxGeometry x="348.75" y="910" width="127.5" height="120" as="geometry"/>
                </mxCell>
                <mxCell id="pTbuJ7iXgImnSBN9kEpl-9" value="Display&amp;nbsp; HDL code snippet to instantiate the design unit into the current design" style="ellipse;whiteSpace=wrap;html=1;" parent="1" vertex="1">
                    <mxGeometry x="342.5" y="1250" width="140" height="90" as="geometry"/>
                </mxCell>
                <mxCell id="pTbuJ7iXgImnSBN9kEpl-11" value="Create an ip through a new directory" style="ellipse;whiteSpace=wrap;html=1;" parent="1" vertex="1">
                    <mxGeometry x="205" y="190" width="130" height="90" as="geometry"/>
                </mxCell>
                <mxCell id="pTbuJ7iXgImnSBN9kEpl-12" value="Initialize an ip through an existing directory" style="ellipse;whiteSpace=wrap;html=1;" parent="1" vertex="1">
                    <mxGeometry x="480" y="190" width="130" height="90" as="geometry"/>
                </mxCell>
                <mxCell id="pTbuJ7iXgImnSBN9kEpl-13" value="" style="endArrow=classic;html=1;rounded=0;entryX=0.5;entryY=0;entryDx=0;entryDy=0;exitX=0;exitY=0.5;exitDx=0;exitDy=0;" parent="1" source="pTbuJ7iXgImnSBN9kEpl-76" target="pTbuJ7iXgImnSBN9kEpl-11" edge="1">
                    <mxGeometry width="50" height="50" relative="1" as="geometry">
                        <mxPoint x="270" y="50" as="sourcePoint"/>
                        <mxPoint x="360" y="80" as="targetPoint"/>
                        <Array as="points">
                            <mxPoint x="270" y="55"/>
                        </Array>
                    </mxGeometry>
                </mxCell>
                <mxCell id="pTbuJ7iXgImnSBN9kEpl-15" value="" style="endArrow=classic;html=1;rounded=0;entryX=0.5;entryY=0;entryDx=0;entryDy=0;exitX=1;exitY=0.5;exitDx=0;exitDy=0;" parent="1" source="pTbuJ7iXgImnSBN9kEpl-76" edge="1">
                    <mxGeometry width="50" height="50" relative="1" as="geometry">
                        <mxPoint x="540" y="30" as="sourcePoint"/>
                        <mxPoint x="544.52" y="190" as="targetPoint"/>
                        <Array as="points">
                            <mxPoint x="545" y="55"/>
                        </Array>
                    </mxGeometry>
                </mxCell>
                <mxCell id="pTbuJ7iXgImnSBN9kEpl-17" value="" style="endArrow=classic;html=1;rounded=0;exitX=0.5;exitY=1;exitDx=0;exitDy=0;entryX=0;entryY=0;entryDx=0;entryDy=0;" parent="1" source="pTbuJ7iXgImnSBN9kEpl-11" target="pTbuJ7iXgImnSBN9kEpl-6" edge="1">
                    <mxGeometry width="50" height="50" relative="1" as="geometry">
                        <mxPoint x="580" y="370" as="sourcePoint"/>
                        <mxPoint x="630" y="320" as="targetPoint"/>
                    </mxGeometry>
                </mxCell>
                <mxCell id="pTbuJ7iXgImnSBN9kEpl-18" value="" style="endArrow=classic;html=1;rounded=0;exitX=0.5;exitY=1;exitDx=0;exitDy=0;entryX=1;entryY=0;entryDx=0;entryDy=0;" parent="1" source="pTbuJ7iXgImnSBN9kEpl-12" target="pTbuJ7iXgImnSBN9kEpl-6" edge="1">
                    <mxGeometry width="50" height="50" relative="1" as="geometry">
                        <mxPoint x="280" y="290" as="sourcePoint"/>
                        <mxPoint x="375" y="333" as="targetPoint"/>
                    </mxGeometry>
                </mxCell>
                <mxCell id="pTbuJ7iXgImnSBN9kEpl-19" value="" style="endArrow=classic;html=1;rounded=0;exitX=0.5;exitY=1;exitDx=0;exitDy=0;" parent="1" source="pTbuJ7iXgImnSBN9kEpl-6" target="pTbuJ7iXgImnSBN9kEpl-5" edge="1">
                    <mxGeometry width="50" height="50" relative="1" as="geometry">
                        <mxPoint x="580" y="530" as="sourcePoint"/>
                        <mxPoint x="630" y="480" as="targetPoint"/>
                    </mxGeometry>
                </mxCell>
                <mxCell id="pTbuJ7iXgImnSBN9kEpl-21" value="" style="endArrow=classic;html=1;rounded=0;exitX=0.5;exitY=1;exitDx=0;exitDy=0;entryX=0.5;entryY=0;entryDx=0;entryDy=0;" parent="1" source="pTbuJ7iXgImnSBN9kEpl-5" target="pTbuJ7iXgImnSBN9kEpl-7" edge="1">
                    <mxGeometry width="50" height="50" relative="1" as="geometry">
                        <mxPoint x="580" y="630" as="sourcePoint"/>
                        <mxPoint x="630" y="580" as="targetPoint"/>
                    </mxGeometry>
                </mxCell>
                <mxCell id="pTbuJ7iXgImnSBN9kEpl-23" value="" style="endArrow=classic;html=1;rounded=0;exitX=0.5;exitY=1;exitDx=0;exitDy=0;entryX=0.5;entryY=0;entryDx=0;entryDy=0;" parent="1" source="pTbuJ7iXgImnSBN9kEpl-7" target="pTbuJ7iXgImnSBN9kEpl-29" edge="1">
                    <mxGeometry width="50" height="50" relative="1" as="geometry">
                        <mxPoint x="580" y="720" as="sourcePoint"/>
                        <mxPoint x="630" y="670" as="targetPoint"/>
                    </mxGeometry>
                </mxCell>
                <mxCell id="pTbuJ7iXgImnSBN9kEpl-24" value="" style="endArrow=classic;html=1;rounded=0;exitX=0.5;exitY=1;exitDx=0;exitDy=0;entryX=0.5;entryY=0;entryDx=0;entryDy=0;" parent="1" source="pTbuJ7iXgImnSBN9kEpl-41" target="pTbuJ7iXgImnSBN9kEpl-9" edge="1">
                    <mxGeometry width="50" height="50" relative="1" as="geometry">
                        <mxPoint x="412.5" y="1290" as="sourcePoint"/>
                        <mxPoint x="360" y="1425" as="targetPoint"/>
                    </mxGeometry>
                </mxCell>
                <mxCell id="pTbuJ7iXgImnSBN9kEpl-26" value="yes" style="text;html=1;align=center;verticalAlign=middle;resizable=0;points=[];autosize=1;strokeColor=none;fillColor=none;" parent="1" vertex="1">
                    <mxGeometry x="370" y="1020" width="40" height="30" as="geometry"/>
                </mxCell>
                <mxCell id="pTbuJ7iXgImnSBN9kEpl-29" value="Read inline documentation and circuit description" style="ellipse;whiteSpace=wrap;html=1;" parent="1" vertex="1">
                    <mxGeometry x="347.5" y="790" width="130" height="90" as="geometry"/>
                </mxCell>
                <mxCell id="pTbuJ7iXgImnSBN9kEpl-31" value="" style="endArrow=classic;html=1;rounded=0;exitX=0.5;exitY=1;exitDx=0;exitDy=0;entryX=0.5;entryY=0;entryDx=0;entryDy=0;" parent="1" source="pTbuJ7iXgImnSBN9kEpl-29" target="pTbuJ7iXgImnSBN9kEpl-8" edge="1">
                    <mxGeometry width="50" height="50" relative="1" as="geometry">
                        <mxPoint x="480" y="890" as="sourcePoint"/>
                        <mxPoint x="530" y="840" as="targetPoint"/>
                    </mxGeometry>
                </mxCell>
                <mxCell id="pTbuJ7iXgImnSBN9kEpl-35" value="Is there more ip to investigate?" style="rhombus;whiteSpace=wrap;html=1;" parent="1" vertex="1">
                    <mxGeometry x="560" y="910" width="127.5" height="120" as="geometry"/>
                </mxCell>
                <mxCell id="pTbuJ7iXgImnSBN9kEpl-36" value="" style="endArrow=classic;html=1;rounded=0;exitX=1;exitY=0.5;exitDx=0;exitDy=0;" parent="1" source="pTbuJ7iXgImnSBN9kEpl-8" target="pTbuJ7iXgImnSBN9kEpl-35" edge="1">
                    <mxGeometry width="50" height="50" relative="1" as="geometry">
                        <mxPoint x="510" y="810" as="sourcePoint"/>
                        <mxPoint x="560" y="760" as="targetPoint"/>
                    </mxGeometry>
                </mxCell>
                <mxCell id="pTbuJ7iXgImnSBN9kEpl-37" value="no" style="text;html=1;align=center;verticalAlign=middle;resizable=0;points=[];autosize=1;strokeColor=none;fillColor=none;" parent="1" vertex="1">
                    <mxGeometry x="460" y="940" width="40" height="30" as="geometry"/>
                </mxCell>
                <mxCell id="pTbuJ7iXgImnSBN9kEpl-38" value="" style="endArrow=classic;html=1;rounded=0;entryX=1;entryY=0.5;entryDx=0;entryDy=0;exitX=0.5;exitY=0;exitDx=0;exitDy=0;" parent="1" source="pTbuJ7iXgImnSBN9kEpl-35" target="pTbuJ7iXgImnSBN9kEpl-5" edge="1">
                    <mxGeometry width="50" height="50" relative="1" as="geometry">
                        <mxPoint x="640" y="890" as="sourcePoint"/>
                        <mxPoint x="610" y="620" as="targetPoint"/>
                        <Array as="points">
                            <mxPoint x="624" y="525"/>
                        </Array>
                    </mxGeometry>
                </mxCell>
                <mxCell id="pTbuJ7iXgImnSBN9kEpl-39" value="yes" style="text;html=1;strokeColor=none;fillColor=none;align=center;verticalAlign=middle;whiteSpace=wrap;rounded=0;" parent="1" vertex="1">
                    <mxGeometry x="580" y="880" width="60" height="30" as="geometry"/>
                </mxCell>
                <mxCell id="pTbuJ7iXgImnSBN9kEpl-41" value="Add the particular&lt;br&gt;ip as a dependency to the local project's manifest file" style="ellipse;whiteSpace=wrap;html=1;" parent="1" vertex="1">
                    <mxGeometry x="345" y="1080" width="135" height="90" as="geometry"/>
                </mxCell>
                <mxCell id="pTbuJ7iXgImnSBN9kEpl-44" value="" style="endArrow=classic;html=1;rounded=0;exitX=0.5;exitY=1;exitDx=0;exitDy=0;entryX=0.5;entryY=0;entryDx=0;entryDy=0;" parent="1" source="pTbuJ7iXgImnSBN9kEpl-8" target="pTbuJ7iXgImnSBN9kEpl-41" edge="1">
                    <mxGeometry width="50" height="50" relative="1" as="geometry">
                        <mxPoint x="510" y="1160" as="sourcePoint"/>
                        <mxPoint x="560" y="1110" as="targetPoint"/>
                    </mxGeometry>
                </mxCell>
                <mxCell id="pTbuJ7iXgImnSBN9kEpl-45" value="" style="endArrow=classic;html=1;rounded=0;exitX=1;exitY=0.5;exitDx=0;exitDy=0;entryX=0.5;entryY=0;entryDx=0;entryDy=0;" parent="1" source="pTbuJ7iXgImnSBN9kEpl-35" target="pTbuJ7iXgImnSBN9kEpl-4" edge="1">
                    <mxGeometry width="50" height="50" relative="1" as="geometry">
                        <mxPoint x="510" y="1030" as="sourcePoint"/>
                        <mxPoint x="560" y="980" as="targetPoint"/>
                        <Array as="points">
                            <mxPoint x="720" y="970"/>
                        </Array>
                    </mxGeometry>
                </mxCell>
                <mxCell id="pTbuJ7iXgImnSBN9kEpl-46" value="no" style="text;html=1;align=center;verticalAlign=middle;resizable=0;points=[];autosize=1;strokeColor=none;fillColor=none;" parent="1" vertex="1">
                    <mxGeometry x="680" y="940" width="40" height="30" as="geometry"/>
                </mxCell>
                <mxCell id="pTbuJ7iXgImnSBN9kEpl-50" value="" style="endArrow=classic;html=1;rounded=0;exitX=0.5;exitY=1;exitDx=0;exitDy=0;entryX=0.5;entryY=0;entryDx=0;entryDy=0;" parent="1" source="pTbuJ7iXgImnSBN9kEpl-9" target="2" edge="1">
                    <mxGeometry width="50" height="50" relative="1" as="geometry">
                        <mxPoint x="760" y="1230" as="sourcePoint"/>
                        <mxPoint x="540" y="1450" as="targetPoint"/>
                        <Array as="points">
                            <mxPoint x="413" y="1410"/>
                            <mxPoint x="590" y="1410"/>
                        </Array>
                    </mxGeometry>
                </mxCell>
                <mxCell id="pTbuJ7iXgImnSBN9kEpl-51" value="" style="endArrow=classic;html=1;rounded=0;exitX=0.5;exitY=1;exitDx=0;exitDy=0;entryX=0.5;entryY=0;entryDx=0;entryDy=0;" parent="1" source="pTbuJ7iXgImnSBN9kEpl-4" target="2" edge="1">
                    <mxGeometry width="50" height="50" relative="1" as="geometry">
                        <mxPoint x="760" y="1370" as="sourcePoint"/>
                        <mxPoint x="610" y="1460" as="targetPoint"/>
                        <Array as="points">
                            <mxPoint x="720" y="1320"/>
                            <mxPoint x="720" y="1410"/>
                            <mxPoint x="590" y="1410"/>
                        </Array>
                    </mxGeometry>
                </mxCell>
                <mxCell id="pTbuJ7iXgImnSBN9kEpl-66" value="Are there more &lt;br&gt;circuits to design?" style="rhombus;whiteSpace=wrap;html=1;" parent="1" vertex="1">
                    <mxGeometry x="526.25" y="1950" width="127.5" height="120" as="geometry"/>
                </mxCell>
                <mxCell id="pTbuJ7iXgImnSBN9kEpl-69" value="" style="endArrow=classic;html=1;rounded=0;entryX=0;entryY=0.5;entryDx=0;entryDy=0;exitX=0;exitY=0.5;exitDx=0;exitDy=0;" parent="1" source="pTbuJ7iXgImnSBN9kEpl-66" target="pTbuJ7iXgImnSBN9kEpl-6" edge="1">
                    <mxGeometry width="50" height="50" relative="1" as="geometry">
                        <mxPoint x="430" y="2310" as="sourcePoint"/>
                        <mxPoint x="230" y="350" as="targetPoint"/>
                        <Array as="points">
                            <mxPoint x="240" y="2010"/>
                            <mxPoint x="240" y="355"/>
                        </Array>
                    </mxGeometry>
                </mxCell>
                <mxCell id="pTbuJ7iXgImnSBN9kEpl-72" value="Release the ip as a new version" style="ellipse;whiteSpace=wrap;html=1;" parent="1" vertex="1">
                    <mxGeometry x="520" y="2150" width="140" height="90" as="geometry"/>
                </mxCell>
                <mxCell id="pTbuJ7iXgImnSBN9kEpl-73" value="" style="endArrow=classic;html=1;rounded=0;exitX=0.5;exitY=1;exitDx=0;exitDy=0;" parent="1" source="pTbuJ7iXgImnSBN9kEpl-66" target="pTbuJ7iXgImnSBN9kEpl-72" edge="1">
                    <mxGeometry width="50" height="50" relative="1" as="geometry">
                        <mxPoint x="630" y="2390" as="sourcePoint"/>
                        <mxPoint x="680" y="2340" as="targetPoint"/>
                    </mxGeometry>
                </mxCell>
                <mxCell id="pTbuJ7iXgImnSBN9kEpl-76" value="Identify a solution to problem that can be described as a circuit" style="ellipse;whiteSpace=wrap;html=1;" parent="1" vertex="1">
                    <mxGeometry x="342.5" y="10" width="130" height="90" as="geometry"/>
                </mxCell>
                <mxCell id="pTbuJ7iXgImnSBN9kEpl-77" value="" style="shape=waypoint;sketch=0;size=6;pointerEvents=1;points=[];fillColor=none;resizable=0;rotatable=0;perimeter=centerPerimeter;snapToPoint=1;" parent="1" vertex="1">
                    <mxGeometry x="580" y="1400" width="20" height="20" as="geometry"/>
                </mxCell>
                <mxCell id="2" value="Are you using a testbench for simulation?" style="rhombus;whiteSpace=wrap;html=1;" parent="1" vertex="1">
                    <mxGeometry x="526.25" y="1460" width="127.5" height="120" as="geometry"/>
                </mxCell>
                <mxCell id="3" value="" style="endArrow=classic;html=1;rounded=0;exitX=1;exitY=0.5;exitDx=0;exitDy=0;entryX=0.5;entryY=0;entryDx=0;entryDy=0;" parent="1" source="2" target="pTbuJ7iXgImnSBN9kEpl-54" edge="1">
                    <mxGeometry width="50" height="50" relative="1" as="geometry">
                        <mxPoint x="550" y="1590" as="sourcePoint"/>
                        <mxPoint x="1030" y="1600" as="targetPoint"/>
                        <Array as="points">
                            <mxPoint x="970" y="1520"/>
                        </Array>
                    </mxGeometry>
                </mxCell>
                <mxCell id="4" value="&lt;b&gt;no&lt;/b&gt;" style="edgeLabel;html=1;align=center;verticalAlign=middle;resizable=0;points=[];" parent="3" vertex="1" connectable="0">
                    <mxGeometry x="-0.1185" relative="1" as="geometry">
                        <mxPoint x="-195" y="-20" as="offset"/>
                    </mxGeometry>
                </mxCell>
                <mxCell id="5" value="" style="endArrow=classic;html=1;rounded=0;exitX=0.5;exitY=0;exitDx=0;exitDy=0;entryX=0.5;entryY=0;entryDx=0;entryDy=0;" parent="1" source="7" target="6" edge="1">
                    <mxGeometry width="50" height="50" relative="1" as="geometry">
                        <mxPoint x="760" y="1620" as="sourcePoint"/>
                        <mxPoint x="730" y="1650" as="targetPoint"/>
                        <Array as="points">
                            <mxPoint x="790" y="1610"/>
                            <mxPoint x="590" y="1610"/>
                        </Array>
                    </mxGeometry>
                </mxCell>
                <mxCell id="6" value="Test the design (simulation, etc.)" style="ellipse;whiteSpace=wrap;html=1;" parent="1" vertex="1">
                    <mxGeometry x="520" y="1670" width="140" height="90" as="geometry"/>
                </mxCell>
                <mxCell id="7" value="Debug and resolve issues" style="ellipse;whiteSpace=wrap;html=1;" parent="1" vertex="1">
                    <mxGeometry x="720" y="1660" width="140" height="90" as="geometry"/>
                </mxCell>
                <mxCell id="8" value="" style="endArrow=classic;html=1;rounded=0;exitX=1;exitY=0.5;exitDx=0;exitDy=0;entryX=0.5;entryY=1;entryDx=0;entryDy=0;" parent="1" source="9" target="7" edge="1">
                    <mxGeometry width="50" height="50" relative="1" as="geometry">
                        <mxPoint x="750" y="1810" as="sourcePoint"/>
                        <mxPoint x="840" y="1840" as="targetPoint"/>
                        <Array as="points">
                            <mxPoint x="790" y="1840"/>
                        </Array>
                    </mxGeometry>
                </mxCell>
                <mxCell id="9" value="Was the test successful?" style="rhombus;whiteSpace=wrap;html=1;" parent="1" vertex="1">
                    <mxGeometry x="526.25" y="1780" width="127.5" height="120" as="geometry"/>
                </mxCell>
                <mxCell id="10" value="" style="endArrow=classic;html=1;rounded=0;exitX=0.5;exitY=1;exitDx=0;exitDy=0;entryX=0.5;entryY=0;entryDx=0;entryDy=0;" parent="1" source="6" target="9" edge="1">
                    <mxGeometry width="50" height="50" relative="1" as="geometry">
                        <mxPoint x="620" y="1750" as="sourcePoint"/>
                        <mxPoint x="810" y="1750" as="targetPoint"/>
                    </mxGeometry>
                </mxCell>
                <mxCell id="11" value="no" style="text;html=1;align=center;verticalAlign=middle;resizable=0;points=[];autosize=1;strokeColor=none;fillColor=none;" parent="1" vertex="1">
                    <mxGeometry x="647.5" y="1810" width="40" height="30" as="geometry"/>
                </mxCell>
                <mxCell id="12" value="" style="endArrow=classic;html=1;rounded=0;exitX=0.5;exitY=1;exitDx=0;exitDy=0;" parent="1" source="9" edge="1">
                    <mxGeometry width="50" height="50" relative="1" as="geometry">
                        <mxPoint x="470" y="1870" as="sourcePoint"/>
                        <mxPoint x="590" y="1950" as="targetPoint"/>
                    </mxGeometry>
                </mxCell>
                <mxCell id="13" value="yes" style="text;html=1;align=center;verticalAlign=middle;resizable=0;points=[];autosize=1;strokeColor=none;fillColor=none;" parent="1" vertex="1">
                    <mxGeometry x="550" y="1890" width="40" height="30" as="geometry"/>
                </mxCell>
                <mxCell id="15" value="" style="endArrow=classic;html=1;rounded=0;exitX=0.5;exitY=1;exitDx=0;exitDy=0;entryX=0.5;entryY=0;entryDx=0;entryDy=0;" parent="1" source="2" target="6" edge="1">
                    <mxGeometry width="50" height="50" relative="1" as="geometry">
                        <mxPoint x="589.5" y="1590" as="sourcePoint"/>
                        <mxPoint x="590" y="1660" as="targetPoint"/>
                    </mxGeometry>
                </mxCell>
                <mxCell id="16" value="yes" style="text;html=1;align=center;verticalAlign=middle;resizable=0;points=[];autosize=1;strokeColor=none;fillColor=none;" parent="1" vertex="1">
                    <mxGeometry x="550" y="1570" width="40" height="30" as="geometry"/>
                </mxCell>
                <mxCell id="pTbuJ7iXgImnSBN9kEpl-54" value="Build the design (synthesis, timing analysis, etc.)" style="ellipse;whiteSpace=wrap;html=1;" parent="1" vertex="1">
                    <mxGeometry x="900" y="1670" width="140" height="90" as="geometry"/>
                </mxCell>
                <mxCell id="pTbuJ7iXgImnSBN9kEpl-58" value="Debug and resolve issues" style="ellipse;whiteSpace=wrap;html=1;" parent="1" vertex="1">
                    <mxGeometry x="1100" y="1660" width="140" height="90" as="geometry"/>
                </mxCell>
                <mxCell id="pTbuJ7iXgImnSBN9kEpl-63" value="" style="endArrow=classic;html=1;rounded=0;exitX=0.5;exitY=0;exitDx=0;exitDy=0;entryX=0.5;entryY=0;entryDx=0;entryDy=0;" parent="1" source="pTbuJ7iXgImnSBN9kEpl-58" target="pTbuJ7iXgImnSBN9kEpl-54" edge="1">
                    <mxGeometry width="50" height="50" relative="1" as="geometry">
                        <mxPoint x="1140" y="1620" as="sourcePoint"/>
                        <mxPoint x="1110" y="1650" as="targetPoint"/>
                        <Array as="points">
                            <mxPoint x="1170" y="1610"/>
                            <mxPoint x="970" y="1610"/>
                        </Array>
                    </mxGeometry>
                </mxCell>
                <mxCell id="pTbuJ7iXgImnSBN9kEpl-59" value="" style="endArrow=classic;html=1;rounded=0;exitX=1;exitY=0.5;exitDx=0;exitDy=0;entryX=0.5;entryY=1;entryDx=0;entryDy=0;" parent="1" source="pTbuJ7iXgImnSBN9kEpl-61" target="pTbuJ7iXgImnSBN9kEpl-58" edge="1">
                    <mxGeometry width="50" height="50" relative="1" as="geometry">
                        <mxPoint x="1130" y="1810" as="sourcePoint"/>
                        <mxPoint x="1220" y="1840" as="targetPoint"/>
                        <Array as="points">
                            <mxPoint x="1170" y="1840"/>
                        </Array>
                    </mxGeometry>
                </mxCell>
                <mxCell id="pTbuJ7iXgImnSBN9kEpl-61" value="Was the build successful?" style="rhombus;whiteSpace=wrap;html=1;" parent="1" vertex="1">
                    <mxGeometry x="906.25" y="1780" width="127.5" height="120" as="geometry"/>
                </mxCell>
                <mxCell id="pTbuJ7iXgImnSBN9kEpl-62" value="" style="endArrow=classic;html=1;rounded=0;exitX=0.5;exitY=1;exitDx=0;exitDy=0;entryX=0.5;entryY=0;entryDx=0;entryDy=0;" parent="1" source="pTbuJ7iXgImnSBN9kEpl-54" target="pTbuJ7iXgImnSBN9kEpl-61" edge="1">
                    <mxGeometry width="50" height="50" relative="1" as="geometry">
                        <mxPoint x="1000" y="1750" as="sourcePoint"/>
                        <mxPoint x="1190" y="1750" as="targetPoint"/>
                    </mxGeometry>
                </mxCell>
                <mxCell id="pTbuJ7iXgImnSBN9kEpl-64" value="no" style="text;html=1;align=center;verticalAlign=middle;resizable=0;points=[];autosize=1;strokeColor=none;fillColor=none;" parent="1" vertex="1">
                    <mxGeometry x="1027.5" y="1810" width="40" height="30" as="geometry"/>
                </mxCell>
                <mxCell id="pTbuJ7iXgImnSBN9kEpl-67" value="" style="endArrow=classic;html=1;rounded=0;exitDx=0;exitDy=0;entryX=0.5;entryY=0;entryDx=0;entryDy=0;startArrow=none;" parent="1" source="23" target="pTbuJ7iXgImnSBN9kEpl-66" edge="1">
                    <mxGeometry width="50" height="50" relative="1" as="geometry">
                        <mxPoint x="910" y="1810" as="sourcePoint"/>
                        <mxPoint x="960" y="1760" as="targetPoint"/>
                        <Array as="points">
                            <mxPoint x="590" y="1920"/>
                        </Array>
                    </mxGeometry>
                </mxCell>
                <mxCell id="pTbuJ7iXgImnSBN9kEpl-68" value="yes" style="text;html=1;align=center;verticalAlign=middle;resizable=0;points=[];autosize=1;strokeColor=none;fillColor=none;" parent="1" vertex="1">
                    <mxGeometry x="930" y="1890" width="40" height="30" as="geometry"/>
                </mxCell>
                <mxCell id="21" value="yes" style="text;html=1;align=center;verticalAlign=middle;resizable=0;points=[];autosize=1;strokeColor=none;fillColor=none;" parent="1" vertex="1">
                    <mxGeometry x="486.25" y="1980" width="40" height="30" as="geometry"/>
                </mxCell>
                <mxCell id="22" value="no" style="text;html=1;align=center;verticalAlign=middle;resizable=0;points=[];autosize=1;strokeColor=none;fillColor=none;" parent="1" vertex="1">
                    <mxGeometry x="550" y="2060" width="40" height="30" as="geometry"/>
                </mxCell>
                <mxCell id="24" value="" style="endArrow=none;html=1;rounded=0;exitX=0.5;exitY=1;exitDx=0;exitDy=0;entryDx=0;entryDy=0;" parent="1" source="pTbuJ7iXgImnSBN9kEpl-61" target="23" edge="1">
                    <mxGeometry width="50" height="50" relative="1" as="geometry">
                        <mxPoint x="970" y="1900" as="sourcePoint"/>
                        <mxPoint x="590" y="1950" as="targetPoint"/>
                        <Array as="points">
                            <mxPoint x="970" y="1920"/>
                        </Array>
                    </mxGeometry>
                </mxCell>
                <mxCell id="23" value="" style="shape=waypoint;sketch=0;size=6;pointerEvents=1;points=[];fillColor=none;resizable=0;rotatable=0;perimeter=centerPerimeter;snapToPoint=1;" parent="1" vertex="1">
                    <mxGeometry x="580" y="1910" width="20" height="20" as="geometry"/>
                </mxCell>
                <mxCell id="25" value="&lt;b&gt;$ &lt;u&gt;orbit new&lt;/u&gt;&lt;/b&gt;" style="rounded=1;whiteSpace=wrap;html=1;" parent="1" vertex="1">
                    <mxGeometry x="210" y="100" width="120" height="30" as="geometry"/>
                </mxCell>
                <mxCell id="26" value="&lt;b&gt;$ &lt;u&gt;orbit init&lt;/u&gt;&lt;/b&gt;" style="rounded=1;whiteSpace=wrap;html=1;" parent="1" vertex="1">
                    <mxGeometry x="485" y="100" width="120" height="30" as="geometry"/>
                </mxCell>
                <mxCell id="27" value="&lt;b&gt;$ &lt;u&gt;orbit search&lt;/u&gt;&lt;/b&gt;" style="rounded=1;whiteSpace=wrap;html=1;" parent="1" vertex="1">
                    <mxGeometry x="352.5" y="420" width="120" height="30" as="geometry"/>
                </mxCell>
                <mxCell id="28" value="&lt;b&gt;$ &lt;u&gt;orbit view&lt;/u&gt;&lt;/b&gt;" style="rounded=1;whiteSpace=wrap;html=1;" parent="1" vertex="1">
                    <mxGeometry x="352.5" y="580" width="120" height="30" as="geometry"/>
                </mxCell>
                <mxCell id="29" value="&lt;b&gt;$ &lt;u&gt;orbit read&lt;/u&gt;&lt;/b&gt;" style="rounded=1;whiteSpace=wrap;html=1;" parent="1" vertex="1">
                    <mxGeometry x="352.5" y="740" width="120" height="30" as="geometry"/>
                </mxCell>
                <mxCell id="30" value="&lt;b&gt;$ &lt;u&gt;orbit get&lt;/u&gt;&lt;/b&gt;" style="rounded=1;whiteSpace=wrap;html=1;" parent="1" vertex="1">
                    <mxGeometry x="352.5" y="1190" width="120" height="30" as="geometry"/>
                </mxCell>
                <mxCell id="31" value="&lt;b&gt;$ &lt;u&gt;orbit test&lt;/u&gt;&lt;/b&gt;" style="rounded=1;whiteSpace=wrap;html=1;" parent="1" vertex="1">
                    <mxGeometry x="530" y="1620" width="120" height="30" as="geometry"/>
                </mxCell>
                <mxCell id="32" value="&lt;b&gt;$ &lt;u&gt;orbit build&lt;/u&gt;&lt;/b&gt;" style="rounded=1;whiteSpace=wrap;html=1;" parent="1" vertex="1">
                    <mxGeometry x="910" y="1620" width="120" height="30" as="geometry"/>
                </mxCell>
                <mxCell id="33" value="&lt;b&gt;$ &lt;u&gt;orbit publish&lt;/u&gt;&lt;/b&gt;" style="rounded=1;whiteSpace=wrap;html=1;" parent="1" vertex="1">
                    <mxGeometry x="530" y="2095" width="120" height="30" as="geometry"/>
                </mxCell>
            </root>
        </mxGraphModel>
    </diagram>
</mxfile>